<?xml version="1.0" standalone="no"?>
<!DOCTYPE svg PUBLIC "-//W3C//DTD SVG 20010904//EN"
 "http://www.w3.org/TR/2001/REC-SVG-20010904/DTD/svg10.dtd">
<svg version="1.0" xmlns="http://www.w3.org/2000/svg"
 width="500.000000pt" height="500.000000pt" viewBox="0 0 500.000000 500.000000"
 preserveAspectRatio="xMidYMid meet">
<metadata>
Created by potrace 1.14, written by Peter Selinger 2001-2017
</metadata>
<g transform="translate(0.000000,500.000000) scale(0.100000,-0.100000)"
fill="#000000" stroke="none">
<path d="M3280 3275 c0 -2 14 -27 30 -55 17 -28 30 -59 29 -68 0 -9 -37 -80
-82 -157 l-82 -140 -77 -3 c-69 -3 -78 -1 -88 18 -7 13 -21 20 -42 20 -24 0
-43 13 -94 65 -36 36 -77 70 -92 76 -15 6 -89 10 -172 9 -256 -4 -268 -3 -273
23 l-4 22 -8 -22 c-4 -13 -16 -23 -26 -23 -10 0 -22 -7 -27 -16 -11 -20 -47
-11 -56 13 -8 20 -3 25 28 27 14 0 26 4 26 9 0 4 -29 7 -65 7 -64 0 -65 0 -66
28 l-1 27 -14 -33 c-11 -25 -20 -33 -36 -30 -16 2 -21 10 -22 35 -1 35 9 43
51 43 17 0 24 5 21 16 -5 25 -31 38 -61 30 -21 -5 -27 -13 -27 -34 0 -15 -4
-33 -8 -40 -11 -16 -32 51 -32 101 0 54 -17 53 -24 -1 -3 -29 0 -68 9 -102 20
-76 20 -77 -25 -85 -48 -8 -78 -43 -111 -129 -21 -54 -21 -59 -6 -68 25 -14
23 -83 -3 -101 -19 -13 -20 -21 -14 -111 l7 -96 33 0 c28 0 34 -4 34 -22 1
-13 7 -34 15 -48 8 -14 14 -28 15 -32 0 -5 -54 -8 -120 -8 -93 0 -126 4 -145
16 -14 9 -40 14 -63 13 -27 -2 -45 2 -56 14 -22 21 -70 22 -90 1 -17 -16 -21
-61 -8 -82 5 -7 24 -17 43 -22 21 -6 406 -10 1023 -10 897 0 988 1 982 16 -3
9 -6 19 -6 23 0 5 -11 20 -25 35 -28 30 -88 36 -121 11 -13 -10 -44 -14 -97
-15 l-77 0 14 23 c8 12 17 36 20 52 4 18 16 35 29 40 19 9 22 19 25 73 l3 62
-31 0 c-25 0 -30 4 -30 24 0 27 24 56 46 56 8 0 14 8 14 18 0 20 77 162 88
162 4 0 53 -81 109 -180 94 -167 100 -180 78 -180 -24 0 -65 -42 -65 -67 0
-21 46 -63 70 -63 12 0 31 11 43 24 l23 24 39 -69 39 -69 67 0 68 0 -230 401
c-126 221 -229 403 -229 406 0 3 16 31 35 64 l34 59 -79 0 c-44 0 -80 -2 -80
-5z m-855 -335 c0 -35 4 -44 23 -51 33 -12 28 -39 -7 -39 -16 0 -34 -7 -41
-15 -7 -8 -20 -15 -30 -15 -10 0 -20 7 -24 15 -3 9 -18 15 -36 15 -18 0 -30 5
-30 13 0 21 22 37 52 37 25 0 28 3 28 33 0 25 6 37 23 45 34 16 42 9 42 -38z
m-237 -36 c12 -8 26 -23 32 -34 9 -17 6 -18 -28 -16 -22 2 -36 7 -34 14 1 7
-5 12 -13 12 -8 0 -14 -6 -12 -12 3 -17 -37 -22 -62 -8 -12 6 -21 19 -21 30 0
15 9 20 48 23 26 2 52 4 57 5 6 1 21 -5 33 -14z m770 -166 c7 -7 12 -25 12
-40 l0 -29 -72 3 c-68 3 -73 5 -76 26 -6 37 15 52 72 52 29 0 57 -5 64 -12z
m-915 -175 c38 -44 16 -113 -37 -113 -35 0 -60 33 -52 71 3 18 11 38 17 46 16
18 53 16 72 -4z m684 -19 c16 -32 16 -38 2 -62 -11 -21 -22 -27 -49 -27 -27 0
-38 6 -49 27 -14 24 -14 30 2 62 14 30 22 36 47 36 25 0 33 -6 47 -36z m-427
-36 c1 -13 7 -34 15 -48 8 -14 14 -28 15 -32 0 -5 -47 -8 -105 -8 -58 0 -105
3 -105 8 0 4 7 16 15 26 8 11 15 32 15 48 l0 28 75 0 c71 0 75 -1 75 -22z
m280 4 c0 -10 9 -34 19 -55 l19 -37 -54 0 c-57 0 -62 4 -39 34 8 11 15 32 15
48 0 21 5 28 20 28 13 0 20 -7 20 -18z m396 -14 c3 -18 13 -43 21 -55 l15 -23
-112 0 -112 0 15 23 c8 12 18 37 21 55 l8 32 68 0 68 0 8 -32z m-1078 -106 c3
-10 -17 -12 -89 -10 -64 2 -94 7 -97 16 -3 10 17 12 89 10 64 -2 94 -7 97 -16z
m293 1 c10 -11 -8 -13 -91 -13 -103 0 -150 6 -150 19 0 12 228 6 241 -6z m294
-4 c10 -10 -186 -12 -222 -3 -13 4 -20 11 -17 16 8 12 225 0 239 -13z m258 11
c20 0 37 -4 37 -10 0 -6 -41 -10 -102 -10 -112 0 -151 7 -141 23 4 6 36 7 87
3 45 -3 98 -6 119 -6z m313 -5 c17 -13 8 -14 -88 -15 -107 0 -138 5 -138 21 0
16 204 11 226 -6z m262 3 c-5 -14 -169 -24 -197 -12 -27 12 26 22 117 23 63 1
83 -2 80 -11z"/>
<path d="M1990 2540 c0 -5 7 -10 15 -10 8 0 15 5 15 10 0 6 -7 10 -15 10 -8 0
-15 -4 -15 -10z"/>
<path d="M2665 2540 c-3 -5 3 -10 15 -10 12 0 18 5 15 10 -3 6 -10 10 -15 10
-5 0 -12 -4 -15 -10z"/>
<path d="M2292 3211 c-17 -33 -19 -42 -8 -57 11 -14 14 -15 22 -3 5 8 9 20 9
28 0 8 8 15 18 17 13 2 16 -2 12 -17 -4 -13 -2 -19 8 -19 18 0 29 60 15 78
-21 25 -55 14 -76 -27z"/>
<path d="M2866 3084 c-18 -18 -20 -32 -7 -53 8 -12 11 -9 16 12 8 29 32 36 41
12 5 -12 9 -13 20 -4 12 10 12 15 -2 30 -21 23 -47 24 -68 3z"/>
<path d="M2887 3030 c-3 -13 0 -20 9 -20 8 0 14 9 14 20 0 11 -4 20 -9 20 -5
0 -11 -9 -14 -20z"/>
<path d="M1475 2746 c-157 -50 -281 -195 -293 -344 l-5 -55 69 6 c53 5 73 11
87 28 24 29 21 56 -8 85 -14 14 -25 29 -25 33 0 23 96 112 147 137 52 24 65
26 155 22 l99 -4 -3 45 c-3 39 -7 46 -28 52 -41 11 -152 9 -195 -5z"/>
<path d="M1191 2311 c-8 -5 -11 -16 -8 -25 6 -15 125 -16 1326 -16 906 0 1322
3 1326 10 4 6 1 17 -5 25 -11 13 -187 15 -1319 15 -739 0 -1312 -4 -1320 -9z"/>
<path d="M854 2136 c-5 -13 -8 -138 -6 -218 2 -48 2 -48 36 -48 l35 0 3 53 c2
28 8 52 13 52 6 0 21 -23 35 -52 22 -46 29 -52 56 -53 17 0 33 3 36 6 4 3 -4
29 -17 58 -22 51 -22 52 -4 75 25 31 24 74 -3 106 -21 23 -31 27 -101 29 -55
3 -80 0 -83 -8z m119 -47 c20 -33 -15 -92 -44 -73 -5 3 -9 25 -9 50 0 41 2 45
21 42 12 -2 26 -10 32 -19z"/>
<path d="M1163 2142 c-38 -2 -53 -7 -53 -18 0 -14 19 -18 73 -14 15 1 27 -3
27 -10 0 -6 -27 -56 -61 -111 -37 -62 -57 -105 -51 -111 5 -5 51 -7 103 -6 76
2 94 6 94 18 0 11 -12 15 -47 15 -26 1 -50 4 -53 7 -4 3 14 39 38 80 52 85 80
139 75 143 -7 5 -95 10 -145 7z"/>
<path d="M1802 2130 c-124 -76 -75 -266 68 -264 48 0 100 27 100 50 0 18 -20
18 -59 -2 -44 -22 -77 -5 -92 47 -29 95 29 171 106 140 12 -5 25 -4 33 2 10 8
7 14 -15 28 -37 25 -100 24 -141 -1z"/>
<path d="M2725 2138 c-39 -23 -46 -37 -43 -80 3 -41 5 -44 68 -78 36 -19 66
-43 68 -52 5 -26 -35 -32 -85 -13 -31 12 -48 14 -55 7 -19 -19 50 -52 109 -52
66 0 104 28 105 78 1 40 -20 64 -89 101 -26 14 -48 33 -48 41 0 19 56 25 86
10 30 -17 50 3 27 27 -21 21 -115 28 -143 11z"/>
<path d="M3174 2136 c-5 -13 -8 -138 -6 -218 2 -48 2 -48 36 -48 l35 0 3 53
c2 28 8 52 13 52 6 0 21 -23 35 -52 22 -46 29 -52 56 -53 17 0 33 3 36 6 4 3
-4 29 -17 58 -22 51 -22 52 -4 75 25 31 24 74 -3 106 -21 23 -31 27 -101 29
-55 3 -80 0 -83 -8z m119 -47 c20 -33 -15 -92 -44 -73 -5 3 -9 25 -9 50 0 41
2 45 21 42 12 -2 26 -10 32 -19z"/>
<path d="M3423 2144 c-8 -4 2 -44 32 -132 65 -188 84 -189 145 -12 44 127 48
153 24 148 -10 -2 -26 -32 -42 -80 -15 -42 -30 -79 -33 -83 -4 -3 -16 24 -28
62 -12 37 -25 73 -29 80 -8 13 -52 24 -69 17z"/>
<path d="M3872 2130 c-124 -76 -75 -266 68 -264 48 0 100 27 100 50 0 18 -20
18 -59 -2 -44 -22 -77 -5 -92 47 -29 95 29 171 106 140 12 -5 25 -4 33 2 10 8
7 14 -15 28 -37 25 -100 24 -141 -1z"/>
<path d="M722 2008 l3 -133 29 -3 c16 -2 32 2 37 10 5 7 9 68 9 136 l0 122
-40 0 -41 0 3 -132z"/>
<path d="M1379 2011 c-24 -72 -40 -133 -37 -137 14 -13 36 5 43 35 6 29 10 31
49 31 39 0 43 -3 55 -35 11 -31 16 -35 47 -35 19 0 34 4 34 9 0 12 -76 237
-85 251 -3 5 -19 10 -34 10 -27 0 -30 -5 -72 -129z m76 -3 c6 -25 4 -28 -18
-28 -25 0 -27 8 -11 59 6 19 21 3 29 -31z"/>
<path d="M2049 2011 c-24 -72 -40 -133 -37 -137 14 -13 36 5 43 35 6 29 10 31
49 31 39 0 43 -3 55 -35 11 -31 16 -35 47 -35 19 0 34 4 34 9 0 12 -76 237
-85 251 -3 5 -19 10 -34 10 -27 0 -30 -5 -72 -129z m76 -3 c6 -25 4 -28 -18
-28 -25 0 -27 8 -11 59 6 19 21 3 29 -31z"/>
<path d="M2288 2085 c-3 -31 -3 -92 0 -136 l5 -81 94 4 c80 2 97 6 109 22 19
27 18 85 -3 108 -13 15 -14 23 -5 43 14 30 2 69 -27 84 -11 6 -53 11 -94 11
l-75 0 -4 -55z m108 17 c28 -18 19 -72 -12 -72 -17 0 -33 37 -26 62 5 19 19
23 38 10z m34 -128 c14 -36 13 -42 -14 -59 -35 -23 -56 -10 -56 34 0 44 5 51
37 51 16 0 27 -8 33 -26z"/>
<path d="M2938 2113 c-2 -16 -2 -77 0 -136 l3 -108 92 3 c73 2 92 6 92 18 0 9
-12 15 -35 16 -19 1 -45 2 -58 3 -21 1 -23 5 -20 39 3 32 7 37 31 40 28 3 39
31 12 33 -8 1 -21 2 -27 3 -8 1 -13 16 -13 41 l0 40 53 3 c37 2 52 7 52 18 0
11 -18 14 -89 14 l-90 0 -3 -27z"/>
<path d="M3682 2008 l3 -133 29 -3 c16 -2 32 2 37 10 5 7 9 68 9 136 l0 122
-40 0 -41 0 3 -132z"/>
<path d="M4088 2113 c-2 -16 -2 -77 0 -136 l3 -108 92 3 c73 2 92 6 92 18 0 9
-12 15 -35 16 -19 1 -45 2 -58 3 -21 1 -23 5 -20 39 3 32 7 37 31 40 28 3 39
31 12 33 -8 1 -21 2 -27 3 -8 1 -13 16 -13 41 l0 40 53 3 c37 2 52 7 52 18 0
11 -18 14 -89 14 l-90 0 -3 -27z"/>
<path d="M1299 1728 c-1 -5 -1 -82 0 -96 2 -22 21 -3 21 21 1 20 2 20 16 -6
13 -25 37 -34 35 -14 -1 4 -1 27 -1 52 0 54 -20 61 -21 8 l-1 -38 -12 34 c-10
28 -33 53 -37 39z"/>
<path d="M1763 1715 c-17 -31 -2 -89 24 -93 12 -2 23 4 27 13 4 13 1 15 -14
10 -16 -5 -20 -2 -20 14 0 12 7 21 15 21 8 0 15 5 15 10 0 6 -6 10 -14 10 -8
0 -16 8 -18 18 -3 15 -5 15 -15 -3z"/>
<path d="M2060 1720 c0 -5 4 -10 9 -10 6 0 11 -19 13 -42 2 -24 8 -43 13 -43
6 0 11 19 13 43 2 23 7 42 13 42 5 0 9 5 9 10 0 6 -16 10 -35 10 -19 0 -35 -4
-35 -10z"/>
<path d="M2509 1728 c-1 -5 -1 -82 0 -96 0 -7 6 -10 11 -7 6 3 10 28 10 56 0
27 -4 49 -10 49 -5 0 -10 -1 -11 -2z"/>
<path d="M2550 1720 c0 -5 5 -10 10 -10 6 0 10 5 10 10 0 6 -4 10 -10 10 -5 0
-10 -4 -10 -10z"/>
<path d="M3070 1715 c0 -9 -6 -15 -12 -14 -27 3 -37 -2 -43 -21 -10 -32 11
-59 45 -58 29 1 30 2 30 55 0 29 -4 53 -10 53 -5 0 -10 -7 -10 -15z m-7 -38
c3 -8 1 -20 -4 -28 -11 -19 -34 3 -26 25 8 20 23 21 30 3z"/>
<path d="M3159 1728 c-1 -5 -1 -82 0 -96 2 -20 21 -3 21 19 0 25 28 25 32 -1
6 -41 23 -24 22 23 -1 53 -12 73 -21 39 -7 -27 -33 -29 -33 -2 0 11 -4 20 -10
20 -5 0 -10 -1 -11 -2z"/>
<path d="M3449 1728 c-1 -5 -1 -82 0 -96 0 -7 6 -10 11 -7 6 3 10 28 10 56 0
27 -4 49 -10 49 -5 0 -10 -1 -11 -2z"/>
<path d="M3490 1720 c0 -5 5 -10 10 -10 6 0 10 5 10 10 0 6 -4 10 -10 10 -5 0
-10 -4 -10 -10z"/>
<path d="M1411 1697 c-19 -19 -13 -65 9 -72 28 -9 52 13 48 43 -3 28 -39 47
-57 29z m36 -41 c-4 -9 -11 -16 -17 -16 -11 0 -14 33 -3 44 11 10 26 -11 20
-28z"/>
<path d="M1508 1703 c-14 -3 -18 -15 -18 -44 0 -21 5 -39 10 -39 6 0 10 16 10
36 0 45 24 42 28 -4 4 -43 22 -41 22 3 0 36 -20 55 -52 48z"/>
<path d="M1683 1703 c-20 -7 -15 -29 10 -47 l22 -17 -24 7 c-17 4 -22 2 -19
-7 6 -19 36 -23 53 -9 16 13 9 40 -10 40 -8 0 -17 5 -21 11 -4 8 0 9 15 4 24
-7 29 10 5 19 -9 3 -16 6 -17 5 -1 0 -8 -3 -14 -6z"/>
<path d="M1845 1693 c-18 -17 -19 -28 -5 -54 22 -40 78 -11 66 35 -7 29 -41
40 -61 19z m39 -19 c7 -17 0 -34 -14 -34 -11 0 -21 30 -14 41 8 14 21 11 28
-7z"/>
<path d="M1953 1702 c-20 -3 -23 -9 -23 -53 0 -27 5 -49 10 -49 6 0 10 7 10
16 0 8 4 13 9 10 15 -10 39 4 44 25 7 26 -23 56 -50 51z m27 -37 c0 -26 -14
-33 -25 -15 -9 14 1 40 15 40 5 0 10 -11 10 -25z"/>
<path d="M2156 1701 c-2 -3 -1 -23 1 -43 6 -44 23 -41 23 4 0 26 2 29 15 18
19 -15 34 -5 17 12 -13 13 -51 19 -56 9z"/>
<path d="M2244 1693 c-29 -29 -7 -72 36 -71 28 1 30 4 30 38 0 32 -4 38 -26
43 -14 2 -31 -2 -40 -10z m39 -16 c3 -8 1 -20 -4 -28 -11 -19 -34 3 -26 25 8
20 23 21 30 3z"/>
<path d="M2330 1696 c0 -26 22 -77 33 -73 14 4 38 75 27 82 -4 3 -13 -7 -18
-22 l-10 -28 -11 28 c-11 29 -21 35 -21 13z"/>
<path d="M2425 1694 c-19 -19 -19 -48 0 -64 17 -14 47 -10 53 9 3 9 -2 11 -17
6 -12 -4 -21 -2 -21 4 0 6 11 11 25 11 26 0 30 7 17 26 -13 19 -41 23 -57 8z
m35 -14 c0 -5 -4 -10 -10 -10 -5 0 -10 5 -10 10 0 6 5 10 10 10 6 0 10 -4 10
-10z"/>
<path d="M2596 1701 c-2 -3 -1 -23 1 -43 6 -44 23 -41 23 3 0 40 18 37 26 -6
3 -19 10 -32 15 -29 11 7 11 45 0 62 -8 14 -59 24 -65 13z"/>
<path d="M2865 1701 c-25 -5 -31 -12 -33 -39 -2 -17 0 -33 5 -34 4 0 20 -2 36
-3 26 -2 27 0 27 41 0 24 -1 43 -2 43 -2 -1 -16 -4 -33 -8z m12 -45 c-4 -9
-11 -16 -17 -16 -11 0 -14 33 -3 44 11 10 26 -11 20 -28z"/>
<path d="M2926 1701 c-2 -3 -1 -23 1 -43 6 -44 23 -41 23 3 0 40 18 37 26 -6
3 -19 10 -32 15 -29 11 7 11 45 0 62 -8 14 -59 24 -65 13z"/>
<path d="M3276 1697 c-12 -9 -17 -23 -14 -42 2 -24 8 -30 27 -30 13 0 26 6 29
14 3 9 -1 11 -17 6 -12 -4 -21 -2 -21 4 0 6 11 11 25 11 30 0 34 25 6 39 -13
7 -23 6 -35 -2z m29 -17 c3 -5 -1 -10 -9 -10 -9 0 -16 5 -16 10 0 6 4 10 9 10
6 0 13 -4 16 -10z"/>
<path d="M3385 1701 c-25 -5 -31 -12 -33 -39 -2 -17 0 -33 5 -34 4 0 20 -2 36
-3 26 -2 27 0 27 41 0 24 -1 43 -2 43 -2 -1 -16 -4 -33 -8z m12 -45 c-4 -9
-11 -16 -17 -16 -11 0 -14 33 -3 44 11 10 26 -11 20 -28z"/>
<path d="M3536 1701 c-2 -3 -1 -23 1 -43 6 -44 23 -41 23 3 0 40 18 37 26 -6
3 -19 10 -32 15 -29 11 7 11 45 0 62 -8 14 -59 24 -65 13z"/>
<path d="M2550 1666 c0 -33 13 -55 23 -39 7 13 -4 73 -14 73 -5 0 -9 -15 -9
-34z"/>
<path d="M2694 1686 c-10 -26 1 -51 24 -54 12 -2 22 -8 22 -13 0 -5 -11 -7
-25 -3 -30 7 -33 -1 -6 -16 35 -18 51 -2 51 51 0 48 -1 49 -30 49 -17 0 -33
-6 -36 -14z m43 -30 c-4 -9 -11 -16 -17 -16 -11 0 -14 33 -3 44 11 10 26 -11
20 -28z"/>
<path d="M3490 1666 c0 -33 13 -55 23 -39 7 13 -4 73 -14 73 -5 0 -9 -15 -9
-34z"/>
<path d="M3634 1686 c-10 -26 1 -51 24 -54 12 -2 22 -8 22 -13 0 -5 -11 -7
-25 -3 -30 7 -33 -1 -6 -16 35 -18 51 -2 51 51 0 48 -1 49 -30 49 -17 0 -33
-6 -36 -14z m43 -30 c-4 -9 -11 -16 -17 -16 -11 0 -14 33 -3 44 11 10 26 -11
20 -28z"/>
<path d="M1585 1680 c-4 -6 8 -10 30 -10 22 0 34 4 30 10 -3 6 -17 10 -30 10
-13 0 -27 -4 -30 -10z"/>
</g>
</svg>
